# xmcd
#
# Track frame offsets:
#	182
#	12469
#	24203
#	36615
#	50914
#	63596
#	76752
#	88703
#	100464
#	112218
#	122542
#	133565
#	148004
#	159651
#	170620
#	183369
#	195893
#	207613
#	221283
#	235345
#	249530
#	261334
#	274961
#	286550
#	300717
#
# Disc length: 4183 seconds
#
# Revision: 0
# Processed by: cddbd v1.5PL3 Copyright (c) Steve Scherf et al.
# Submitted via: dBpowerAMP V4.0
#
DISCID=74105519
DTITLE=Waters, Muddy - The Chronological Muddy Waters (1948-1950)
DYEAR=1900
DGENRE=Blues
TTITLE0=Good Lookin' Woman
TTITLE1=Mean Disposition
TTITLE2=I Can't Be Satisfied
TTITLE3=I Feel Like Goin' Home
TTITLE4=Train Fare Home (Train Fair Blues)
TTITLE5=Down South Blues
TTITLE6=Kind Hearted Woman
TTITLE7=Sittin' Here and Drinkin' (Whiskey Blues)
TTITLE8=You're Gonna Miss Me
TTITLE9=Mean Red Spider
TTITLE10=Standin' Here Tremblin'
TTITLE11=Streamlined Woman
TTITLE12=Hard Days
TTITLE13=Muddy Jumps One
TTITLE14=Little Geneva
TTITLE15=Canary Bird
TTITLE16=Burying Ground
TTITLE17=You're Gonna Need My Help
TTITLE18=Screaming And Crying
TTITLE19=Where's My Woman Been
TTITLE20=Last Time I Fool Around With You
TTITLE21=Rollin' And Tumblin' - Part 1
TTITLE22=Rollin' And Tumblin' - Part 2
TTITLE23=Rollin' Stone
TTITLE24=Walkin' Blues
EXTD=Blues and Rhythm Series Classics
EXTT0=
EXTT1=
EXTT2=
EXTT3=
EXTT4=
EXTT5=
EXTT6=
EXTT7=
EXTT8=
EXTT9=
EXTT10=
EXTT11=
EXTT12=
EXTT13=
EXTT14=
EXTT15=
EXTT16=
EXTT17=
EXTT18=
EXTT19=
EXTT20=
EXTT21=
EXTT22=
EXTT23=
EXTT24=
PLAYORDER=
